<svg  viewBox="0 0 368 315" fill="none" xmlns="http://www.w3.org/2000/svg">
<path d="M73.4203 114.15C125.228 143.809 116.405 230.38 60.209 230.38C35.972 230.38 14.9966 212.193 5.6568 188.942C-15.9117 135.241 28.9407 88.6779 73.4203 114.15Z" fill="#FAC663" fill-opacity="0.15"/>
<path d="M126.629 124.87C64.4694 124.87 45.8575 19.5076 104.912 2.18551C131.818 -5.70398 162.413 13.2264 172.24 47.8315C183.265 86.6182 161.574 124.87 126.629 124.87Z" fill="#FAC663" fill-opacity="0.15"/>
<path d="M142.616 312.418C151.248 310.036 166.569 308.502 182.606 308.28C199.557 308.033 217.305 309.245 228.788 312.418C259.803 321.043 302.004 300.178 292.744 256.844C284.18 216.784 253.407 219.066 246.13 181.101C238.797 142.731 210.303 124.214 182.606 125.661C156.971 127.004 132.022 145.457 125.224 181.109C117.989 219.101 87.2798 216.797 78.7278 256.844C69.4345 300.213 111.724 320.964 142.616 312.418Z" fill="#FAC663" fill-opacity="0.15"/>
<path d="M236.029 124.874C218.446 124.874 203.346 114.681 194.955 99.0799C170.01 52.6905 210.979 -11.5296 257.75 2.22378C316.906 19.5937 298.154 124.874 236.029 124.874Z" fill="#FAC663" fill-opacity="0.15"/>
<path d="M264.125 195.884C244.166 147.138 291.475 87.5952 336.658 106.33C391.084 128.894 367.08 226.216 307.237 226.216C288.032 226.216 271.711 214.414 264.125 195.884Z" fill="#FAC663" fill-opacity="0.15"/>
</svg>
