<svg width="1419" height="1077" viewBox="0 0 1419 1077" fill="none" xmlns="http://www.w3.org/2000/svg">
<path d="M1017.18 47.5252C1097.35 113.931 1108.01 255.129 1174.6 353.509C1241.19 451.888 1363.65 507.237 1403.19 592.336C1442.67 677.222 1399.18 791.647 1321.3 891.504C1243.6 991.074 1131.52 1076.08 1020.3 1076.88C908.834 1077.76 798.153 994.234 672.57 956.331C546.918 918.217 210.5 959.589 81.5 901C-4.62194 848.471 -4.34803 667.513 4.00006 614.5C9.1525 513.013 3.8033 349.57 81.4999 250C159.379 150.143 577.981 114.383 682.686 51.5884C787.391 -11.2058 936.95 -19.0926 1017.18 47.5252Z" fill="url(#paint0_linear)"/>
<defs>
<linearGradient id="paint0_linear" x1="262.151" y1="393.118" x2="1033.82" y2="1075.54" gradientUnits="userSpaceOnUse">
<stop stop-color="#FEA653"/>
<stop offset="1" stop-color="#F8B653"/>
</linearGradient>
</defs>
</svg>
